<?xml version="1.0" encoding="UTF-8" standalone="no"?>
<!DOCTYPE svg PUBLIC "-//W3C//DTD SVG 1.1//EN"
 "http://www.w3.org/Graphics/SVG/1.1/DTD/svg11.dtd">
<!-- Generated by graphviz version 2.43.0 (0)
 -->
<!-- Title: AI_Action_Loop Pages: 1 -->
<svg width="573pt" height="772pt"
 viewBox="0.00 0.00 572.90 772.00" xmlns="http://www.w3.org/2000/svg" xmlns:xlink="http://www.w3.org/1999/xlink">
<g id="graph0" class="graph" transform="scale(1 1) rotate(0) translate(4 768)">
<title>AI_Action_Loop</title>
<polygon fill="#343541" stroke="transparent" points="-4,4 -4,-768 568.9,-768 568.9,4 -4,4"/>
<text text-anchor="middle" x="282.45" y="-748.8" font-family="Times,serif" font-size="14.00">BabyDragon MemoryLoop</text>
<!-- UserMessage -->
<g id="node1" class="node">
<title>UserMessage</title>
<ellipse fill="#fed8b1" stroke="grey" cx="391.9" cy="-723" rx="74.19" ry="18"/>
<text text-anchor="middle" x="391.9" y="-719.3" font-family="Helvetica,sans-Serif" font-size="14.00" fill="#343541">User Message</text>
</g>
<!-- PM -->
<g id="node2" class="node">
<title>PM</title>
<ellipse fill="#fdfd96" stroke="grey" cx="303.9" cy="-650" rx="131.88" ry="18"/>
<text text-anchor="middle" x="303.9" y="-646.3" font-family="Helvetica,sans-Serif" font-size="14.00" fill="#343541">1. Perceptual Memory (PM)</text>
</g>
<!-- UserMessage&#45;&gt;PM -->
<g id="edge1" class="edge">
<title>UserMessage&#45;&gt;PM</title>
<path fill="none" stroke="#aaaaaa" d="M371.49,-705.53C359.99,-696.26 345.45,-684.52 332.8,-674.32"/>
<polygon fill="#aaaaaa" stroke="#aaaaaa" points="334.79,-671.43 324.81,-667.87 330.39,-676.87 334.79,-671.43"/>
</g>
<!-- AbstractionExtraction -->
<g id="node3" class="node">
<title>AbstractionExtraction</title>
<defs>
<linearGradient id="l_0" gradientUnits="userSpaceOnUse" x1="255.9" y1="-595" x2="255.9" y2="-559" >
<stop offset="0" style="stop-color:white;stop-opacity:1.;"/>
<stop offset="1" style="stop-color:lightgrey;stop-opacity:1.;"/>
</linearGradient>
</defs>
<path fill="url(#l_0)" stroke="grey" d="M338.4,-595C338.4,-595 173.4,-595 173.4,-595 167.4,-595 161.4,-589 161.4,-583 161.4,-583 161.4,-571 161.4,-571 161.4,-565 167.4,-559 173.4,-559 173.4,-559 338.4,-559 338.4,-559 344.4,-559 350.4,-565 350.4,-571 350.4,-571 350.4,-583 350.4,-583 350.4,-589 344.4,-595 338.4,-595"/>
<text text-anchor="middle" x="255.9" y="-573.3" font-family="Helvetica,sans-Serif" font-size="14.00" fill="#343541">2. Abstraction Extraction</text>
</g>
<!-- PM&#45;&gt;AbstractionExtraction -->
<g id="edge2" class="edge">
<title>PM&#45;&gt;AbstractionExtraction</title>
<path fill="none" stroke="#aaaaaa" d="M292.28,-631.81C286.5,-623.27 279.4,-612.77 273.02,-603.32"/>
<polygon fill="#aaaaaa" stroke="#aaaaaa" points="275.91,-601.35 267.41,-595.03 270.11,-605.27 275.91,-601.35"/>
</g>
<!-- MemoryQuerying -->
<g id="node4" class="node">
<title>MemoryQuerying</title>
<defs>
<linearGradient id="l_1" gradientUnits="userSpaceOnUse" x1="176.9" y1="-522" x2="176.9" y2="-486" >
<stop offset="0" style="stop-color:white;stop-opacity:1.;"/>
<stop offset="1" style="stop-color:lightgrey;stop-opacity:1.;"/>
</linearGradient>
</defs>
<path fill="url(#l_1)" stroke="grey" d="M244.9,-522C244.9,-522 108.9,-522 108.9,-522 102.9,-522 96.9,-516 96.9,-510 96.9,-510 96.9,-498 96.9,-498 96.9,-492 102.9,-486 108.9,-486 108.9,-486 244.9,-486 244.9,-486 250.9,-486 256.9,-492 256.9,-498 256.9,-498 256.9,-510 256.9,-510 256.9,-516 250.9,-522 244.9,-522"/>
<text text-anchor="middle" x="176.9" y="-500.3" font-family="Helvetica,sans-Serif" font-size="14.00" fill="#343541">3. Memory Querying</text>
</g>
<!-- AbstractionExtraction&#45;&gt;MemoryQuerying -->
<g id="edge3" class="edge">
<title>AbstractionExtraction&#45;&gt;MemoryQuerying</title>
<path fill="none" stroke="#aaaaaa" d="M236.77,-558.81C226.78,-549.83 214.39,-538.69 203.47,-528.89"/>
<polygon fill="#aaaaaa" stroke="#aaaaaa" points="205.62,-526.11 195.84,-522.03 200.94,-531.32 205.62,-526.11"/>
</g>
<!-- STM -->
<g id="node5" class="node">
<title>STM</title>
<ellipse fill="#aec6cf" stroke="grey" cx="29.9" cy="-419" rx="29.8" ry="18"/>
<text text-anchor="middle" x="29.9" y="-415.3" font-family="Helvetica,sans-Serif" font-size="14.00" fill="#343541">STM</text>
</g>
<!-- MemoryQuerying&#45;&gt;STM -->
<g id="edge5" class="edge">
<title>MemoryQuerying&#45;&gt;STM</title>
<path fill="none" stroke="#aaaaaa" d="M146.44,-485.8C121.12,-471.51 85.29,-451.28 60.06,-437.03"/>
<polygon fill="#aaaaaa" stroke="#aaaaaa" points="61.71,-433.94 51.28,-432.07 58.27,-440.04 61.71,-433.94"/>
</g>
<!-- EM -->
<g id="node6" class="node">
<title>EM</title>
<ellipse fill="#b4d7a8" stroke="grey" cx="104.9" cy="-419" rx="27" ry="18"/>
<text text-anchor="middle" x="104.9" y="-415.3" font-family="Helvetica,sans-Serif" font-size="14.00" fill="#343541">EM</text>
</g>
<!-- MemoryQuerying&#45;&gt;EM -->
<g id="edge6" class="edge">
<title>MemoryQuerying&#45;&gt;EM</title>
<path fill="none" stroke="#aaaaaa" d="M161.98,-485.8C151.1,-473.26 136.25,-456.14 124.43,-442.51"/>
<polygon fill="#aaaaaa" stroke="#aaaaaa" points="127.06,-440.21 117.87,-434.95 121.77,-444.8 127.06,-440.21"/>
</g>
<!-- AM -->
<g id="node7" class="node">
<title>AM</title>
<ellipse fill="#f4c2c2" stroke="grey" cx="176.9" cy="-419" rx="27" ry="18"/>
<text text-anchor="middle" x="176.9" y="-415.3" font-family="Helvetica,sans-Serif" font-size="14.00" fill="#343541">AM</text>
</g>
<!-- MemoryQuerying&#45;&gt;AM -->
<g id="edge7" class="edge">
<title>MemoryQuerying&#45;&gt;AM</title>
<path fill="none" stroke="#aaaaaa" d="M176.9,-485.8C176.9,-474.67 176.9,-459.94 176.9,-447.24"/>
<polygon fill="#aaaaaa" stroke="#aaaaaa" points="180.4,-447.18 176.9,-437.18 173.4,-447.18 180.4,-447.18"/>
</g>
<!-- MemoryRetrievalScoring -->
<g id="node8" class="node">
<title>MemoryRetrievalScoring</title>
<defs>
<linearGradient id="l_2" gradientUnits="userSpaceOnUse" x1="328.9" y1="-437" x2="328.9" y2="-401" >
<stop offset="0" style="stop-color:white;stop-opacity:1.;"/>
<stop offset="1" style="stop-color:lightgrey;stop-opacity:1.;"/>
</linearGradient>
</defs>
<path fill="url(#l_2)" stroke="grey" d="M423.4,-437C423.4,-437 234.4,-437 234.4,-437 228.4,-437 222.4,-431 222.4,-425 222.4,-425 222.4,-413 222.4,-413 222.4,-407 228.4,-401 234.4,-401 234.4,-401 423.4,-401 423.4,-401 429.4,-401 435.4,-407 435.4,-413 435.4,-413 435.4,-425 435.4,-425 435.4,-431 429.4,-437 423.4,-437"/>
<text text-anchor="middle" x="328.9" y="-415.3" font-family="Helvetica,sans-Serif" font-size="14.00" fill="#343541">4. Memory Retrieval Scoring</text>
</g>
<!-- MemoryQuerying&#45;&gt;MemoryRetrievalScoring -->
<g id="edge4" class="edge">
<title>MemoryQuerying&#45;&gt;MemoryRetrievalScoring</title>
<path fill="none" stroke="#aaaaaa" d="M208.39,-485.8C231.7,-473.07 263.64,-455.63 288.78,-441.91"/>
<polygon fill="#aaaaaa" stroke="#aaaaaa" points="290.6,-444.9 297.7,-437.03 287.25,-438.75 290.6,-444.9"/>
<text text-anchor="middle" x="286.4" y="-458.4" font-family="Helvetica,sans-Serif" font-size="12.00" fill="#eeeeee">Queries</text>
</g>
<!-- MemoryCompression -->
<g id="node9" class="node">
<title>MemoryCompression</title>
<defs>
<linearGradient id="l_3" gradientUnits="userSpaceOnUse" x1="319.9" y1="-352" x2="319.9" y2="-316" >
<stop offset="0" style="stop-color:white;stop-opacity:1.;"/>
<stop offset="1" style="stop-color:lightgrey;stop-opacity:1.;"/>
</linearGradient>
</defs>
<path fill="url(#l_3)" stroke="grey" d="M431.4,-352C431.4,-352 208.4,-352 208.4,-352 202.4,-352 196.4,-346 196.4,-340 196.4,-340 196.4,-328 196.4,-328 196.4,-322 202.4,-316 208.4,-316 208.4,-316 431.4,-316 431.4,-316 437.4,-316 443.4,-322 443.4,-328 443.4,-328 443.4,-340 443.4,-340 443.4,-346 437.4,-352 431.4,-352"/>
<text text-anchor="middle" x="319.9" y="-330.3" font-family="Helvetica,sans-Serif" font-size="14.00" fill="#343541">5. Memory Compression Into WM</text>
</g>
<!-- MemoryRetrievalScoring&#45;&gt;MemoryCompression -->
<g id="edge8" class="edge">
<title>MemoryRetrievalScoring&#45;&gt;MemoryCompression</title>
<path fill="none" stroke="#aaaaaa" d="M327.03,-400.8C325.83,-389.67 324.23,-374.94 322.85,-362.24"/>
<polygon fill="#aaaaaa" stroke="#aaaaaa" points="326.32,-361.74 321.76,-352.18 319.36,-362.49 326.32,-361.74"/>
<text text-anchor="middle" x="345.9" y="-373.4" font-family="Helvetica,sans-Serif" font-size="12.00" fill="#eeeeee">Scores</text>
</g>
<!-- WM -->
<g id="node10" class="node">
<title>WM</title>
<ellipse fill="#cdb4db" stroke="grey" cx="319.9" cy="-261" rx="27.1" ry="18"/>
<text text-anchor="middle" x="319.9" y="-257.3" font-family="Helvetica,sans-Serif" font-size="14.00" fill="#343541">WM</text>
</g>
<!-- MemoryCompression&#45;&gt;WM -->
<g id="edge9" class="edge">
<title>MemoryCompression&#45;&gt;WM</title>
<path fill="none" stroke="#aaaaaa" d="M319.9,-315.81C319.9,-307.79 319.9,-298.05 319.9,-289.07"/>
<polygon fill="#aaaaaa" stroke="#aaaaaa" points="323.4,-289.03 319.9,-279.03 316.4,-289.03 323.4,-289.03"/>
</g>
<!-- SelfDoubtAdaptation -->
<g id="node11" class="node">
<title>SelfDoubtAdaptation</title>
<defs>
<linearGradient id="l_4" gradientUnits="userSpaceOnUse" x1="319.9" y1="-206" x2="319.9" y2="-170" >
<stop offset="0" style="stop-color:white;stop-opacity:1.;"/>
<stop offset="1" style="stop-color:lightgrey;stop-opacity:1.;"/>
</linearGradient>
</defs>
<path fill="url(#l_4)" stroke="grey" d="M409.4,-206C409.4,-206 230.4,-206 230.4,-206 224.4,-206 218.4,-200 218.4,-194 218.4,-194 218.4,-182 218.4,-182 218.4,-176 224.4,-170 230.4,-170 230.4,-170 409.4,-170 409.4,-170 415.4,-170 421.4,-176 421.4,-182 421.4,-182 421.4,-194 421.4,-194 421.4,-200 415.4,-206 409.4,-206"/>
<text text-anchor="middle" x="319.9" y="-184.3" font-family="Helvetica,sans-Serif" font-size="14.00" fill="#343541">6. Self&#45;Doubt &amp; Adaptation</text>
</g>
<!-- WM&#45;&gt;SelfDoubtAdaptation -->
<g id="edge10" class="edge">
<title>WM&#45;&gt;SelfDoubtAdaptation</title>
<path fill="none" stroke="#aaaaaa" d="M319.9,-242.81C319.9,-234.79 319.9,-225.05 319.9,-216.07"/>
<polygon fill="#aaaaaa" stroke="#aaaaaa" points="323.4,-216.03 319.9,-206.03 316.4,-216.03 323.4,-216.03"/>
</g>
<!-- ClarifyingQuestion -->
<g id="node12" class="node">
<title>ClarifyingQuestion</title>
<ellipse fill="#fed8b1" stroke="grey" cx="226.9" cy="-103" rx="96.68" ry="18"/>
<text text-anchor="middle" x="226.9" y="-99.3" font-family="Helvetica,sans-Serif" font-size="14.00" fill="#343541">Clarifying Question</text>
</g>
<!-- SelfDoubtAdaptation&#45;&gt;ClarifyingQuestion -->
<g id="edge11" class="edge">
<title>SelfDoubtAdaptation&#45;&gt;ClarifyingQuestion</title>
<path fill="none" stroke="#aaaaaa" d="M300.63,-169.8C286.95,-157.59 268.41,-141.05 253.34,-127.6"/>
<polygon fill="#aaaaaa" stroke="#aaaaaa" points="255.62,-124.94 245.82,-120.89 250.95,-130.16 255.62,-124.94"/>
<text text-anchor="middle" x="311.9" y="-142.4" font-family="Helvetica,sans-Serif" font-size="12.00" fill="#eeeeee">If Doubtful</text>
</g>
<!-- Answer -->
<g id="node13" class="node">
<title>Answer</title>
<ellipse fill="#fed8b1" stroke="grey" cx="385.9" cy="-103" rx="44.39" ry="18"/>
<text text-anchor="middle" x="385.9" y="-99.3" font-family="Helvetica,sans-Serif" font-size="14.00" fill="#343541">Answer</text>
</g>
<!-- SelfDoubtAdaptation&#45;&gt;Answer -->
<g id="edge12" class="edge">
<title>SelfDoubtAdaptation&#45;&gt;Answer</title>
<path fill="none" stroke="#aaaaaa" d="M333.57,-169.8C343.14,-157.77 356.05,-141.53 366.66,-128.19"/>
<polygon fill="#aaaaaa" stroke="#aaaaaa" points="369.43,-130.33 372.91,-120.33 363.95,-125.98 369.43,-130.33"/>
<text text-anchor="middle" x="391.9" y="-142.4" font-family="Helvetica,sans-Serif" font-size="12.00" fill="#eeeeee">If Confident</text>
</g>
<!-- UserResponse -->
<g id="node14" class="node">
<title>UserResponse</title>
<ellipse fill="#fed8b1" stroke="grey" cx="367.9" cy="-18" rx="77.99" ry="18"/>
<text text-anchor="middle" x="367.9" y="-14.3" font-family="Helvetica,sans-Serif" font-size="14.00" fill="#343541">User Response</text>
</g>
<!-- ClarifyingQuestion&#45;&gt;UserResponse -->
<g id="edge13" class="edge">
<title>ClarifyingQuestion&#45;&gt;UserResponse</title>
<path fill="none" stroke="#aaaaaa" d="M243.93,-84.88C254.48,-74.94 268.7,-62.7 282.9,-54 293.32,-47.62 305.11,-41.92 316.51,-37.07"/>
<polygon fill="#aaaaaa" stroke="#aaaaaa" points="318.04,-40.23 325.97,-33.2 315.39,-33.75 318.04,-40.23"/>
<text text-anchor="middle" x="322.9" y="-57.4" font-family="Helvetica,sans-Serif" font-size="12.00" fill="#eeeeee">User Clarifies</text>
</g>
<!-- Answer&#45;&gt;UserResponse -->
<g id="edge14" class="edge">
<title>Answer&#45;&gt;UserResponse</title>
<path fill="none" stroke="#aaaaaa" d="M375.88,-85.11C373.07,-79.53 370.39,-73.17 368.9,-67 367.31,-60.41 366.63,-53.15 366.44,-46.33"/>
<polygon fill="#aaaaaa" stroke="#aaaaaa" points="369.94,-46.13 366.49,-36.11 362.94,-46.09 369.94,-46.13"/>
<text text-anchor="middle" x="413.4" y="-57.4" font-family="Helvetica,sans-Serif" font-size="12.00" fill="#eeeeee">User Responds</text>
</g>
<!-- UserResponse&#45;&gt;UserMessage -->
<g id="edge15" class="edge">
<title>UserResponse&#45;&gt;UserMessage</title>
<path fill="none" stroke="#aaaaaa" d="M422.3,-31.11C435.42,-36.28 448.38,-43.62 457.9,-54 472.91,-70.38 471.9,-79.78 471.9,-102 471.9,-651 471.9,-651 471.9,-651 471.9,-673.12 454.57,-690.03 436.05,-701.79"/>
<polygon fill="#aaaaaa" stroke="#aaaaaa" points="434.06,-698.9 427.22,-706.99 437.61,-704.93 434.06,-698.9"/>
<text text-anchor="middle" x="518.4" y="-373.4" font-family="Helvetica,sans-Serif" font-size="12.00" fill="#eeeeee">Loop Continues</text>
</g>
</g>
</svg>
